<?xml version="1.0" standalone="no"?>
<!DOCTYPE svg PUBLIC "-//W3C//DTD SVG 20010904//EN"
 "http://www.w3.org/TR/2001/REC-SVG-20010904/DTD/svg10.dtd">
<svg version="1.0" xmlns="http://www.w3.org/2000/svg"
 width="700.000000pt" height="700.000000pt" viewBox="0 0 700.000000 700.000000"
 preserveAspectRatio="xMidYMid meet">
<metadata>
Created by potrace 1.14, written by Peter Selinger 2001-2017
</metadata>
<g transform="translate(0.000000,700.000000) scale(0.100000,-0.100000)"
fill="#000000" stroke="none">
<path d="M3278 6995 c-1 -1 -42 -5 -89 -9 -47 -4 -95 -8 -106 -10 -11 -3 -44
-7 -74 -11 -313 -38 -709 -158 -1024 -311 -180 -87 -448 -247 -555 -331 -8 -6
-51 -40 -95 -74 -353 -275 -673 -651 -897 -1054 -49 -87 -148 -289 -148 -301
0 -2 -9 -23 -20 -47 -57 -123 -157 -435 -186 -582 -2 -11 -10 -54 -19 -95 -22
-115 -30 -160 -41 -255 -26 -230 -26 -667 1 -826 2 -13 6 -46 9 -74 9 -78 22
-152 51 -285 21 -96 91 -339 114 -395 5 -11 25 -65 46 -120 63 -166 249 -531
312 -610 4 -6 34 -49 65 -95 170 -255 433 -535 708 -755 92 -74 370 -265 386
-265 4 0 15 -6 23 -14 26 -22 298 -158 408 -204 146 -60 384 -141 459 -156 10
-2 57 -13 104 -25 109 -26 200 -43 299 -57 25 -3 57 -8 71 -10 163 -25 682
-25 842 1 13 2 46 7 73 10 71 10 87 13 115 18 14 3 43 8 65 12 104 19 292 68
435 115 178 57 568 235 660 300 15 11 33 20 39 20 6 0 11 5 11 10 0 6 5 10 10
10 15 0 220 141 330 227 152 118 324 280 450 422 36 41 70 79 76 85 6 6 48 61
94 121 150 197 277 405 383 628 26 53 47 99 47 102 0 2 11 28 24 57 57 127
151 421 182 573 17 81 54 301 59 350 4 33 9 71 11 85 9 47 11 525 4 605 -15
157 -21 210 -25 225 -2 8 -7 35 -10 60 -17 129 -80 384 -136 552 -348 1036
-1168 1857 -2204 2206 -168 57 -420 119 -555 137 -19 3 -46 7 -60 10 -13 2
-52 7 -86 11 -33 3 -74 8 -90 10 -32 5 -540 14 -546 9z m339 -1630 c63 -42
120 -80 126 -85 7 -6 64 -47 127 -92 108 -77 333 -254 409 -322 592 -528 907
-1023 967 -1519 14 -108 9 -289 -10 -372 -48 -219 -129 -382 -257 -519 -122
-130 -232 -198 -397 -243 -84 -23 -116 -27 -237 -27 -100 0 -159 5 -205 17
-78 21 -185 64 -222 89 -14 10 -29 18 -33 18 -11 0 -129 93 -143 112 -12 17
-38 16 -28 0 2 -4 7 -47 10 -97 4 -49 8 -103 10 -120 2 -16 7 -57 11 -90 4
-32 9 -68 11 -79 2 -11 6 -38 10 -61 5 -34 22 -119 39 -190 12 -51 49 -155 70
-197 l24 -48 -394 0 c-217 0 -395 3 -395 6 0 3 7 22 16 42 28 63 32 75 52 142
20 65 49 189 57 245 2 17 8 64 14 105 15 106 32 271 33 330 1 27 -6 27 -34 0
-100 -95 -269 -180 -424 -214 -95 -20 -293 -13 -399 14 -408 105 -688 519
-679 1005 1 55 5 117 8 138 3 20 9 54 12 75 34 225 161 512 342 772 183 263
471 558 802 822 141 112 568 416 588 418 2 0 55 -34 119 -75z"/>
</g>
</svg>
